<?xml version="1.0" standalone="no"?>
<!DOCTYPE svg PUBLIC "-//W3C//DTD SVG 1.1//EN" "http://www.w3.org/Graphics/SVG/1.1/DTD/svg11.dtd" >
<svg>
<metadata>
Created by FontForge 20090622 at Sat Oct  1 10:55:29 2016
 By deploy user
Recoleta Sans St &#194;&#169; (Southype). 2016. All Rights Reserved www.southype.com free for personal use
</metadata>
<defs>
<font id="RecoletaSansSt" horiz-adv-x="1014" >
  <font-face 
    font-family="Recoleta Sans St"
    font-weight="400"
    font-stretch="normal"
    units-per-em="2048"
    panose-1="2 0 5 0 0 0 0 0 0 0"
    ascent="1638"
    descent="-410"
    x-height="1064"
    cap-height="1672"
    bbox="100 -605 2164 2148"
    underline-thickness="150"
    underline-position="-142"
    unicode-range="U+0020-U+F002"
  />
<missing-glyph horiz-adv-x="1024" 
 />
    <glyph glyph-name=".notdef" horiz-adv-x="1024" 
 />
    <glyph glyph-name=".null" horiz-adv-x="0" 
 />
    <glyph glyph-name="nonmarkingreturn" horiz-adv-x="508" 
 />
    <glyph glyph-name="space" unicode=" " horiz-adv-x="508" 
 />
    <glyph glyph-name="space" unicode="&#xa0;" horiz-adv-x="508" 
 />
    <glyph glyph-name="exclam" unicode="!" horiz-adv-x="672" 
 />
    <glyph glyph-name="quotedbl" unicode="&#x22;" horiz-adv-x="672" 
 />
    <glyph glyph-name="numbersign" unicode="#" horiz-adv-x="1336" 
 />
    <glyph glyph-name="dollar" unicode="$" 
 />
    <glyph glyph-name="percent" unicode="%" horiz-adv-x="1610" 
 />
    <glyph glyph-name="ampersand" unicode="&#x26;" horiz-adv-x="1683" 
 />
    <glyph glyph-name="quotesingle" unicode="'" horiz-adv-x="346" 
 />
    <glyph glyph-name="parenleft" unicode="(" horiz-adv-x="758" 
 />
    <glyph glyph-name="parenright" unicode=")" horiz-adv-x="758" 
 />
    <glyph glyph-name="asterisk" unicode="*" horiz-adv-x="1024" 
 />
    <glyph glyph-name="plus" unicode="+" 
 />
    <glyph glyph-name="comma" unicode="," horiz-adv-x="300" 
d="M132 120h16q52 -43 52 -116v-8q-14 -136 -68 -136q-26 0 -32 36q28 76 28 108q0 11 -28 88q8 28 32 28z" />
    <glyph glyph-name="hyphen" unicode="-" horiz-adv-x="670" 
 />
    <glyph glyph-name="hyphen" unicode="&#xad;" horiz-adv-x="670" 
 />
    <glyph glyph-name="period" unicode="." horiz-adv-x="356" 
d="M188 148q68 -20 68 -64v-16q-11 -68 -68 -68h-16q-72 11 -72 72q0 50 56 72q16 4 32 4zM176 76v-4h8v4h-8z" />
    <glyph glyph-name="slash" unicode="/" horiz-adv-x="569" 
 />
    <glyph glyph-name="zero" unicode="0" horiz-adv-x="1072" 
d="M516 1472h28q182 0 304 -112q58 95 64 96q13 8 20 8q32 -3 32 -32v-4q0 -20 -64 -132q72 -124 72 -264v-592q0 -217 -168 -360q-110 -80 -264 -80h-8q-184 0 -308 116q-56 -112 -88 -112q-26 0 -32 36q0 19 68 132v4q-70 158 -72 228v640q0 216 168 352q114 76 248 76z
M172 1020v-552q0 -135 48 -208h4q546 958 584 1032v4q-96 104 -276 104q-243 0 -328 -204q-32 -79 -32 -176zM264 188q86 -116 276 -116q253 0 336 236q24 71 24 160v544q0 135 -44 204q-16 -16 -444 -772z" />
    <glyph glyph-name="one" unicode="1" horiz-adv-x="668" 
d="M536 1460q32 -11 32 -40v-1376q0 -44 -36 -44t-36 44v1284q0 8 -8 8q-331 -340 -348 -340h-4q-32 0 -36 40q0 17 196 204q211 220 228 220h12z" />
    <glyph glyph-name="two" unicode="2" horiz-adv-x="1072" 
d="M532 1472h8q324 0 420 -348q12 -63 12 -84q0 -25 -140 -192q-597 -745 -616 -772v-4h700q48 -5 48 -36t-48 -36h-772q-40 6 -40 36v4q0 22 92 128q700 875 700 880v8q0 104 -100 240q-99 104 -264 104q-258 0 -340 -264q-12 -38 -24 -112l-28 -20q-33 0 -40 44
q0 120 112 288q127 136 320 136z" />
    <glyph glyph-name="three" unicode="3" horiz-adv-x="1072" 
d="M152 1472h768q52 0 52 -44v-180q0 -39 -88 -112l-260 -264v-8q82 0 200 -88q148 -144 148 -344q0 -191 -152 -340q-116 -92 -280 -92h-8q-280 0 -392 248q-40 107 -40 180q0 28 36 40q42 0 48 -128q54 -165 152 -220q91 -48 208 -48q248 0 332 236q24 84 24 128
q0 138 -104 268q-99 96 -264 96q-28 15 -28 40q0 23 88 100q308 309 308 316v136q0 8 -8 8h-740q-31 0 -44 24v24q13 24 44 24z" />
    <glyph glyph-name="four" unicode="4" horiz-adv-x="1076" 
d="M136 1460q31 0 36 -48v-540q1 -8 8 -8h716v524q0 72 44 72q31 0 36 -60q-4 -914 -4 -1360q0 -27 -36 -40q-31 0 -36 48v736q0 8 -8 8h-748q-44 7 -44 44v576q5 48 36 48z" />
    <glyph glyph-name="five" unicode="5" horiz-adv-x="1072" 
d="M152 1472h768q52 0 52 -44v-172q0 -48 -40 -48q-32 8 -32 48v136q0 8 -8 8h-712q-8 -1 -8 -8v-512q1 -8 8 -8h360q301 0 408 -304q24 -84 24 -144q0 -191 -156 -340q-116 -84 -280 -84q-293 0 -404 256q-32 108 -32 172q0 28 36 40q38 0 44 -100q12 -94 84 -192
q103 -104 276 -104q238 0 324 200q36 88 36 160q0 118 -100 260q-96 108 -280 108h-368q-52 0 -52 52v568q0 52 52 52z" />
    <glyph glyph-name="six" unicode="6" horiz-adv-x="1088" 
d="M948 1472q26 0 40 -24v-24q0 -27 -156 -40q-147 -36 -228 -80q-94 -44 -212 -168q-132 -146 -188 -404h4q123 140 324 140h24q282 0 392 -280q28 -86 28 -160q0 -185 -144 -332q-113 -100 -292 -100h-4q-280 0 -392 248q-44 127 -44 196q0 211 72 452q122 330 404 476
q228 100 372 100zM176 420q0 -57 48 -172q93 -176 320 -176q242 0 332 220q20 63 28 144q0 155 -124 288q-99 76 -244 76h-4q-265 0 -340 -264q-11 -41 -16 -116z" />
    <glyph glyph-name="seven" unicode="7" horiz-adv-x="1068" 
d="M152 1464h776q40 -5 40 -36q0 -30 -152 -280q-7 -20 -648 -1136q-20 -12 -28 -12q-32 3 -32 32v4q0 23 64 128q681 1189 696 1224v4h-688q-8 -1 -8 -8v-140q-5 -48 -36 -48t-36 48v176q0 44 52 44z" />
    <glyph glyph-name="eight" unicode="8" horiz-adv-x="1072" 
d="M536 1472q436 -117 436 -336q0 -169 -272 -284v-8q134 -44 208 -176q64 -124 64 -236q0 -191 -152 -340q-116 -92 -280 -92h-8q-315 0 -416 312q-16 87 -16 120q0 210 172 364q81 48 100 48v8q-272 115 -272 284q0 221 436 336zM172 1132q0 -142 328 -248q26 -8 36 -8
q202 47 320 156q44 58 44 108q0 136 -304 240q-38 16 -64 16q-360 -102 -360 -264zM172 436q0 -156 124 -288q99 -76 248 -76q248 0 332 236q24 84 24 128q0 140 -112 272q-104 92 -232 92l-20 -4l-20 4q-210 0 -312 -212q-32 -109 -32 -152z" />
    <glyph glyph-name="nine" unicode="9" horiz-adv-x="1092" 
d="M544 1472h16q307 0 408 -304q16 -67 24 -140q-15 -267 -52 -388q-96 -315 -312 -468q-145 -110 -360 -156l-124 -16q-44 9 -44 36q0 44 112 44q158 31 244 72q261 126 376 400q52 139 52 188q-123 -140 -328 -140h-8q-281 0 -392 248q-40 104 -40 192q0 210 176 360
q114 72 252 72zM188 1036q0 -166 132 -292q93 -72 232 -72q259 0 340 236q16 42 24 140q-15 113 -48 176q-93 176 -320 176q-239 0 -328 -212q-32 -91 -32 -152z" />
    <glyph glyph-name="colon" unicode=":" horiz-adv-x="356" 
d="M188 148q68 -20 68 -64v-16q-11 -68 -68 -68h-16q-72 11 -72 72q0 50 56 72q16 4 32 4zM176 76v-4h8v4h-8zM188 1024q68 -20 68 -64v-16q-11 -68 -68 -68h-16q-72 11 -72 72q0 50 56 72q16 4 32 4zM176 952v-4h8v4h-8z" />
    <glyph glyph-name="semicolon" unicode=";" horiz-adv-x="356" 
d="M132 120h16q52 -43 52 -116v-8q-14 -136 -68 -136q-26 0 -32 36q28 76 28 108q0 11 -28 88q8 28 32 28zM188 1024q68 -20 68 -64v-16q-11 -68 -68 -68h-16q-72 11 -72 72q0 50 56 72q16 4 32 4zM176 952v-4h8v4h-8z" />
    <glyph glyph-name="semicolon" unicode="&#x37e;" horiz-adv-x="356" 
d="M132 120h16q52 -43 52 -116v-8q-14 -136 -68 -136q-26 0 -32 36q28 76 28 108q0 11 -28 88q8 28 32 28zM188 1024q68 -20 68 -64v-16q-11 -68 -68 -68h-16q-72 11 -72 72q0 50 56 72q16 4 32 4zM176 952v-4h8v4h-8z" />
    <glyph glyph-name="less" unicode="&#x3c;" 
 />
    <glyph glyph-name="equal" unicode="=" 
 />
    <glyph glyph-name="greater" unicode="&#x3e;" 
 />
    <glyph glyph-name="question" unicode="?" horiz-adv-x="748" 
 />
    <glyph glyph-name="at" unicode="@" horiz-adv-x="2019" 
 />
    <glyph glyph-name="A" unicode="A" horiz-adv-x="1264" 
d="M736 1664q38 0 64 -160q364 -1432 364 -1464v-4q0 -32 -32 -32h-12q-28 0 -64 192q-8 16 -152 596l-8 4h-440q-272 -741 -300 -788q-7 0 -24 -8q-26 0 -32 36v4q4 27 520 1396q74 209 88 220q16 8 28 8zM720 1500l-232 -628v-4h396v4l-156 628h-8z" />
    <glyph glyph-name="B" unicode="B" horiz-adv-x="1072" 
d="M152 1672h376q260 0 392 -208q52 -97 52 -228q0 -291 -248 -396v-8q248 -105 248 -392v-4q0 -310 -280 -408q-77 -28 -156 -28h-392q-44 0 -44 52v1576q0 44 52 44zM172 1592v-1512q1 -8 8 -8h328q264 0 360 196q32 81 32 168q0 246 -212 336q-74 28 -240 28h-96
q-44 0 -44 36t44 36h96q190 0 264 40q188 91 188 324q0 242 -204 332q-91 32 -180 32h-336q-8 -1 -8 -8z" />
    <glyph glyph-name="C" unicode="C" horiz-adv-x="1272" 
d="M528 1672h196q258 0 396 -208q52 -108 52 -216q-5 -40 -36 -40q-39 0 -44 100q0 115 -128 220q-111 72 -260 72h-156q-276 0 -352 -236q-24 -66 -24 -160v-752q0 -185 104 -276q126 -104 284 -104h148q264 0 344 180q32 51 52 192q0 7 28 24q33 0 40 -44
q0 -140 -108 -288q-121 -136 -324 -136h-192q-218 0 -376 180q-72 114 -72 252v792q0 256 204 392q99 56 224 56z" />
    <glyph glyph-name="D" unicode="D" horiz-adv-x="1072" 
d="M152 1672h388q197 0 348 -160q84 -118 84 -272v-800q0 -217 -168 -360q-110 -80 -264 -80h-392q-48 0 -48 48v1580q0 44 52 44zM172 1592v-1512q1 -8 8 -8h340q266 0 348 212q32 88 32 180v744q0 258 -172 340q-91 52 -224 52h-324q-8 -1 -8 -8z" />
    <glyph glyph-name="E" unicode="E" horiz-adv-x="1268" 
d="M144 1672h976q48 -5 48 -36t-48 -36h-940q-8 -1 -8 -8v-712q1 -8 8 -8h336q48 -5 48 -36t-48 -36h-336q-8 -1 -8 -8v-712q1 -8 8 -8h936q48 -5 48 -36t-48 -36h-972q-44 7 -44 44v1576q0 52 44 52z" />
    <glyph glyph-name="F" unicode="F" horiz-adv-x="1264" 
d="M152 1664h964q48 -5 48 -36t-48 -36h-936q-8 -1 -8 -8v-712q1 -8 8 -8h336q48 -5 48 -36t-48 -36h-336q-8 -1 -8 -8v-740q0 -31 -24 -44h-24q-24 13 -24 44v1576q0 44 52 44z" />
    <glyph glyph-name="G" unicode="G" horiz-adv-x="1272" 
d="M528 1672h212q143 0 280 -92q152 -122 152 -336q0 -21 -24 -36h-24q-25 0 -36 144q-83 248 -372 248h-168q-260 0 -344 -212q-32 -83 -32 -176v-756q0 -255 196 -352q76 -32 184 -32h180q256 0 340 200q28 71 28 188v332q0 8 -8 8h-340q-48 5 -48 36t48 36h376
q44 -7 44 -44v-400q0 -315 -292 -412q-78 -16 -124 -16h-228q-304 0 -404 288q-24 77 -24 156v792q0 215 176 364q114 72 252 72z" />
    <glyph glyph-name="H" unicode="H" horiz-adv-x="1272" 
d="M136 1660q31 0 36 -48v-740q1 -8 8 -8h912q8 0 8 8v740q5 48 36 48t36 -48v-1564q-5 -48 -36 -48t-36 48v736q0 8 -8 8h-912q-8 -1 -8 -8v-736q-5 -48 -36 -48t-36 48v1564q5 48 36 48z" />
    <glyph glyph-name="I" unicode="I" horiz-adv-x="860" 
d="M148 1672h564q48 -5 48 -36t-48 -36h-236q-8 -1 -8 -8v-1512q1 -8 8 -8h236q48 -5 48 -36t-48 -36h-564q-48 5 -48 36t48 36h240q8 0 8 8v1512q0 8 -8 8h-240q-48 5 -48 36t48 36z" />
    <glyph glyph-name="J" unicode="J" horiz-adv-x="864" 
d="M344 1672h376q44 -7 44 -44v-1588q0 -214 -164 -356q-108 -84 -268 -84h-192q-40 6 -40 36q0 31 40 36h172q269 0 352 220q28 86 28 176v1524q0 8 -8 8h-340q-48 5 -48 36t48 36z" />
    <glyph glyph-name="K" unicode="K" horiz-adv-x="1272" 
d="M136 1656q31 0 36 -48v-736q1 -8 8 -8h524q186 0 292 96q104 87 104 292v360q0 31 24 44h24q24 -13 24 -44v-400q0 -294 -296 -400l-80 -16q0 -8 372 -756v-12q-8 -22 -24 -28h-12q-34 0 -80 120l-340 672h-532q-8 -1 -8 -8v-740q0 -31 -24 -44h-24q-24 13 -24 44v1564
q5 48 36 48z" />
    <glyph glyph-name="L" unicode="L" horiz-adv-x="1264" 
d="M136 1668q31 0 36 -48v-1540q1 -8 8 -8h936q48 -5 48 -36t-48 -36h-972q-44 7 -44 44v1576q5 48 36 48z" />
    <glyph glyph-name="M" unicode="M" horiz-adv-x="2264" 
d="M636 1668q36 0 76 -172q412 -1302 416 -1332h8q447 1443 468 1488q17 12 32 12q34 0 60 -120q468 -1481 468 -1504v-8q0 -21 -32 -32q-41 0 -68 136q-20 49 -428 1364h-8q-444 -1434 -468 -1488q-17 -12 -32 -12q-34 0 -64 136q-4 3 -428 1368h-8q-445 -1431 -464 -1484
q-13 -10 -32 -16q-28 0 -32 40q20 85 500 1608q18 16 36 16z" />
    <glyph glyph-name="N" unicode="N" horiz-adv-x="1272" 
d="M140 1664q27 0 68 -80q882 -1406 884 -1416h8v1452q6 40 36 40q31 0 36 -40v-1580q-5 -40 -40 -40q-27 0 -68 80q-882 1406 -884 1416h-8v-1448q-5 -48 -36 -48t-36 48v1576q5 40 40 40z" />
    <glyph glyph-name="O" unicode="O" horiz-adv-x="1272" 
d="M528 1672h200q175 0 340 -144q104 -123 104 -288v-792q0 -180 -132 -332q-119 -116 -300 -116h-196q-208 0 -356 160q-88 112 -88 268v800q0 208 160 356q111 88 268 88zM172 1200v-748q0 -254 204 -344q98 -36 192 -36h140q191 0 276 92q116 122 116 308v744
q0 279 -248 360q-75 24 -152 24h-156q-280 0 -356 -264q-16 -64 -16 -136z" />
    <glyph glyph-name="P" unicode="P" horiz-adv-x="1272" 
d="M152 1668h600q241 0 372 -208q48 -106 48 -220v-200q0 -178 -148 -344q-132 -100 -260 -100h-584q-8 -1 -8 -8v-540q-5 -48 -36 -48t-36 48v1576q0 44 52 44zM172 1588v-912q1 -8 8 -8h536q265 0 348 220q36 86 36 172v148q0 273 -188 352q-84 36 -184 36h-548
q-8 -1 -8 -8z" />
    <glyph glyph-name="Q" unicode="Q" horiz-adv-x="1272" 
d="M528 1672h200q175 0 340 -144q104 -123 104 -288v-792q0 -173 -124 -324q-119 -107 -204 -112q-25 -7 -64 -12q40 -48 108 -48q50 0 124 52l24 4q28 -12 28 -36q0 -47 -140 -88q-15 -4 -36 -4h-8q-94 0 -192 100q-37 16 -52 16h-36q-48 0 -120 -48h-12q-32 0 -32 32
q0 4 8 32q-170 41 -248 140q-96 111 -96 276v800q0 208 160 356q111 88 268 88zM172 1200v-748q0 -246 184 -332q101 -48 192 -48q31 0 56 4q53 -4 112 -4q262 0 348 212q36 88 36 188v744q0 279 -248 360q-75 24 -152 24h-156q-280 0 -356 -264q-16 -64 -16 -136z" />
    <glyph glyph-name="R" unicode="R" horiz-adv-x="1272" 
d="M152 1668h600q241 0 372 -208q48 -106 48 -220v-200q0 -178 -148 -344q-83 -60 -100 -60v-4l100 -60q148 -126 148 -336v-192q-5 -40 -36 -40q-30 0 -36 40v160q0 258 -172 340q-75 52 -276 52h-472q-8 -1 -8 -8v-540q-5 -48 -36 -48t-36 48v1576q0 44 52 44zM172 1588
v-912q1 -8 8 -8h456q208 0 260 32q115 51 176 204q28 88 28 156v148q0 273 -188 352q-84 36 -184 36h-548q-8 -1 -8 -8z" />
    <glyph glyph-name="S" unicode="S" horiz-adv-x="1272" 
d="M540 1672h204q280 0 388 -252q40 -99 40 -176q0 -21 -24 -36h-24q-25 0 -36 120q-48 154 -120 196q-76 76 -248 76h-164q-261 0 -356 -204q-28 -74 -28 -164q0 -260 236 -340q73 -20 144 -20h196q231 0 364 -192q60 -106 60 -236v-12q0 -303 -276 -404q-78 -28 -168 -28
h-196q-280 0 -392 248q-40 108 -40 176q6 40 36 40q40 0 40 -84q28 -125 92 -204q96 -104 284 -104h156q295 0 372 232q20 58 20 132q0 239 -192 328q-84 36 -184 36h-196q-224 0 -364 184q-64 112 -64 244v16q0 315 308 412q73 16 132 16z" />
    <glyph glyph-name="T" unicode="T" horiz-adv-x="1260" 
d="M148 1668h964q48 -5 48 -36t-48 -36h-436q-8 -1 -8 -8v-1540q-5 -48 -36 -48t-36 48v1540q0 8 -8 8h-440q-48 5 -48 36t48 36z" />
    <glyph glyph-name="U" unicode="U" horiz-adv-x="1272" 
d="M136 1668q31 0 36 -48v-1164q0 -280 228 -364q60 -20 168 -20h148q283 0 368 236q16 68 16 152v1164q6 40 36 40q31 0 36 -40v-1188q0 -300 -268 -408q-100 -28 -164 -28h-204q-290 0 -400 248q-36 106 -36 184v1188q5 48 36 48z" />
    <glyph glyph-name="V" unicode="V" horiz-adv-x="1264" 
d="M132 1664q42 0 72 -148q20 -50 424 -1352h8q424 1363 464 1484q15 12 28 12h16q20 -9 20 -36q-40 -150 -500 -1608q-18 -16 -36 -16q-34 0 -64 132q-464 1470 -464 1492v8q0 21 32 32z" />
    <glyph glyph-name="W" unicode="W" horiz-adv-x="1864" 
d="M132 1664q42 0 72 -148q20 -50 424 -1352h8q256 820 256 832q-192 611 -192 632v4q0 21 32 32q39 0 64 -120q8 -14 132 -420h8q148 485 168 528q13 8 24 8h16q20 -9 20 -36q0 -12 -192 -632v-4l256 -824h8q424 1363 464 1484q15 12 28 12h16q20 -9 20 -36
q-40 -150 -500 -1608q-18 -16 -36 -16q-36 0 -72 160q-16 39 -220 700h-8q-244 -789 -264 -844q-18 -16 -36 -16q-34 0 -64 132q-464 1470 -464 1492v8q0 21 32 32z" />
    <glyph glyph-name="X" unicode="X" horiz-adv-x="1264" 
d="M136 1664q29 0 124 -172q9 -5 368 -588h8q438 710 472 752l20 4q36 -5 36 -36q-11 -35 -488 -788q20 -40 196 -320q276 -436 288 -468q4 -8 4 -12q0 -26 -36 -32q-31 0 -108 140q-381 605 -384 616h-8q-6 -14 -300 -484q-146 -234 -168 -264q-18 -12 -28 -12
q-26 0 -32 36q0 23 176 292l312 504q-466 746 -488 788v8q5 36 36 36z" />
    <glyph glyph-name="Y" unicode="Y" horiz-adv-x="1264" 
d="M136 1664q29 0 124 -172q9 -5 368 -588h8q438 710 472 752l20 4q36 -5 36 -36q-12 -36 -388 -628q-108 -172 -108 -188v-760q-5 -48 -36 -48t-36 48v756q0 24 -64 120q-414 658 -432 696v8q5 36 36 36z" />
    <glyph glyph-name="Z" unicode="Z" horiz-adv-x="1264" 
d="M148 1672h976q40 -5 40 -36t-92 -160q0 -7 -872 -1400l8 -4h912q40 -5 40 -36q0 -30 -40 -36h-980q-40 0 -40 44q7 29 196 320q6 14 768 1232l-8 4h-908q-48 5 -48 36t48 36z" />
    <glyph glyph-name="bracketleft" unicode="[" horiz-adv-x="758" 
 />
    <glyph glyph-name="backslash" unicode="\" horiz-adv-x="569" 
 />
    <glyph glyph-name="bracketright" unicode="]" horiz-adv-x="758" 
 />
    <glyph glyph-name="asciicircum" unicode="^" 
 />
    <glyph glyph-name="underscore" unicode="_" horiz-adv-x="1024" 
 />
    <glyph glyph-name="grave" unicode="`" horiz-adv-x="460" 
d="M120 1619h16q23 0 116 -104q108 -98 108 -120q0 -32 -40 -36q-17 0 -196 188q-24 14 -24 36v16q0 5 20 20z" />
    <glyph glyph-name="a" unicode="a" horiz-adv-x="876" 
d="M332 1088h196q181 0 236 -168q8 -32 8 -68v-16q0 -294 4 -520q-4 -107 -4 -276q-5 -40 -40 -40q-32 8 -32 48v24h-4q-67 -56 -160 -56h-204q-165 0 -224 164q-8 38 -8 60v216q0 190 188 228q15 4 44 4h192q96 0 168 -56h8v200q0 184 -184 184h-168q-124 0 -160 -88
q-20 -95 -36 -104h-28q-24 14 -24 40q0 139 144 212q54 12 88 12zM172 452v-188q0 -176 184 -176h160q124 0 160 80q20 44 20 64v252q0 92 -136 128q-21 4 -48 4h-168q-172 0 -172 -164z" />
    <glyph glyph-name="b" unicode="b" horiz-adv-x="876" 
d="M128 1864h24q24 -13 24 -44v-804h8q62 56 156 56h188q105 0 200 -96q48 -57 48 -144v-604q0 -163 -164 -220q-40 -8 -72 -8h-192q-94 0 -168 56h-4q-4 -52 -36 -52q-22 0 -36 36q0 120 -4 268q4 830 4 1492v20q0 31 24 44zM180 844v-632q0 -119 164 -140h184
q176 0 176 180v576q0 149 -184 172h-168q-137 0 -168 -124q-4 -15 -4 -32z" />
    <glyph glyph-name="c" unicode="c" horiz-adv-x="872" 
d="M332 1072h200q162 0 224 -140q16 -52 16 -84q-5 -40 -36 -40q-37 0 -44 80q0 54 -88 100q-43 12 -84 12h-176q-172 0 -172 -172v-580q0 -176 192 -176h160q146 0 172 132q0 50 36 64q33 0 40 -44q0 -100 -96 -184q-58 -40 -140 -40h-200q-158 0 -224 152q-12 43 -12 72
v616q0 190 188 228q15 4 44 4z" />
    <glyph glyph-name="d" unicode="d" horiz-adv-x="876" 
d="M724 1864h24q24 -11 24 -48q0 -619 4 -1516q-4 -157 -4 -260q0 -22 -36 -36q-32 0 -36 52h-4q-74 -56 -168 -56h-188q-158 0 -216 124q-24 48 -24 112v596q0 173 192 232q30 8 56 8h188q94 0 156 -56h8v804q0 31 24 44zM172 820v-580q0 -168 180 -168h160q141 0 180 104
l4 28v640q0 101 -104 148q-32 8 -68 8h-164q-117 0 -180 -108q-8 -40 -8 -72z" />
    <glyph glyph-name="e" unicode="e" horiz-adv-x="872" 
d="M324 1072h204q181 0 236 -168q8 -32 8 -68v-184q0 -52 -44 -52h-548q-8 -1 -8 -8v-344q0 -176 188 -176h156q130 0 164 88q22 88 40 104q12 0 12 4q40 -11 40 -40q0 -101 -96 -188q-61 -40 -140 -40h-200q-158 0 -224 152q-12 43 -12 72v604q0 161 140 228q50 16 84 16z
M172 816v-136q1 -8 8 -8h512q8 0 8 8v136q0 184 -184 184h-168q-176 0 -176 -184z" />
    <glyph glyph-name="f" unicode="f" horiz-adv-x="676" 
d="M336 2148h8q152 0 212 -128q20 -54 20 -96q-5 -40 -36 -40q-38 0 -48 104q-40 88 -156 88q-117 0 -152 -104q-8 -38 -8 -60v-76q0 -242 4 -688h344q48 -5 48 -36t-48 -36h-344v-844q0 -220 -16 -220l-24 -12q-36 0 -36 80q-4 36 -4 152v400q0 537 4 1312q0 91 100 172
q65 32 132 32z" />
    <glyph glyph-name="g" unicode="g" horiz-adv-x="876" 
d="M340 1076h188q105 0 200 -96q48 -60 48 -136q0 -263 -4 -1228q0 -125 -132 -192q-52 -24 -104 -24h-212q-161 0 -216 168q-8 44 -8 60q0 28 36 40q37 0 48 -104q41 -92 164 -92h160q192 0 192 184v396h-4q-67 -48 -156 -48h-192q-161 0 -228 140q-16 50 -16 84v608
q0 128 116 212q58 28 120 28zM176 812v-560q0 -176 188 -176h164q172 0 172 172v84q0 191 4 520q0 84 -104 132q-43 20 -80 20h-168q-137 0 -168 -124q-8 -32 -8 -68z" />
    <glyph glyph-name="h" unicode="h" horiz-adv-x="876" 
d="M140 1860q31 0 36 -40v-768l4 -40h4q75 56 168 56h192q171 0 224 -168q8 -40 8 -72v-780q-5 -48 -36 -48t-36 48v768q0 180 -164 180h-176q-135 0 -176 -100q-12 -24 -12 -140v-704q-5 -48 -36 -48t-36 48v476q0 278 -4 396q4 136 4 404v492q6 40 36 40z" />
    <glyph glyph-name="i" unicode="i" horiz-adv-x="295" 
d="M148 1669q47 -12 47 -54q-11 -54 -47 -54q-48 12 -48 54q9 54 48 54zM135 1256h24q24 -13 24 -44v-1164q-5 -48 -36 -48t-36 48v1164q0 31 24 44z" />
    <glyph glyph-name="j" unicode="j" horiz-adv-x="686" 
d="M524 1255h24q24 -13 24 -44v-1572q0 -180 -164 -236q-40 -8 -72 -8q-188 0 -232 192q-4 22 -4 36q0 28 36 40q37 0 48 -100q42 -96 156 -96q118 0 152 116q8 32 8 68v1560q0 31 24 44zM539 1669q47 -12 47 -54q-11 -54 -47 -54q-48 12 -48 54q9 54 48 54z" />
    <glyph glyph-name="k" unicode="k" horiz-adv-x="1272" 
d="M128 1856h24q24 -13 24 -44v-792q1 -8 8 -8q58 56 144 56h188q188 0 188 176v172q0 31 24 44h24q24 -13 24 -44v-184q0 -163 -156 -224q-16 0 -16 -8v-4q545 -905 568 -952v-8q0 -26 -36 -32q-32 0 -104 140l-512 848q-7 4 -16 4h-152q-125 0 -160 -92q-16 -40 -16 -124
v-732q-5 -48 -36 -48t-36 48v764q0 23 -4 28q4 22 4 36v936q0 31 24 44z" />
    <glyph glyph-name="l" unicode="l" horiz-adv-x="864" 
d="M136 1678q31 0 36 -48v-1382q0 -176 184 -176h364q31 0 44 -24v-24q-13 -24 -44 -24h-384q-152 0 -212 132q-24 48 -24 112v1386q5 48 36 48z" />
    <glyph glyph-name="m" unicode="m" horiz-adv-x="1476" 
d="M336 1068h200q125 0 204 -96h4q79 96 208 96h188q152 0 212 -132q24 -48 24 -112v-776q-5 -48 -36 -48t-36 48v760q0 188 -176 188h-164q-141 0 -180 -108q0 -4 -4 -12q-4 -388 -4 -604v-224q0 -31 -24 -44h-24q-24 13 -24 44v224q0 214 -4 600q0 76 -116 120
q-40 4 -60 4h-172q-124 0 -160 -88q-16 -41 -16 -136v-724q-5 -48 -36 -48t-36 48v760q0 17 -4 44q4 4 4 32v128q0 31 24 44h24q17 -8 28 -40q69 52 156 52z" />
    <glyph glyph-name="n" unicode="n" horiz-adv-x="876" 
d="M336 1064h200q190 0 236 -184q4 -26 4 -52v-784q0 -31 -24 -44h-24q-24 13 -24 44v772q0 176 -180 176h-172q-124 0 -160 -88q-16 -41 -16 -136v-720q-5 -48 -36 -48t-36 48v756q0 17 -4 44q4 4 4 32v132q5 48 36 48q40 -17 40 -48q69 52 156 52z" />
    <glyph glyph-name="o" unicode="o" horiz-adv-x="872" 
d="M336 1072h188q105 0 200 -96q48 -57 48 -144v-604q0 -163 -164 -220q-40 -8 -72 -8h-192q-161 0 -228 140q-16 50 -16 84v608q0 128 116 212q58 28 120 28zM172 808v-560q0 -176 188 -176h164q176 0 176 180v576q0 149 -184 172h-168q-137 0 -168 -124q-8 -32 -8 -68z
" />
    <glyph glyph-name="p" unicode="p" horiz-adv-x="876" 
d="M348 1074h196q173 0 224 -168q8 -32 8 -68v-596q0 -180 -208 -236q-21 -4 -40 -4h-188q-93 0 -156 56h-8v-600q-5 -48 -36 -48t-36 48q0 414 -4 1288q4 185 4 288q0 22 36 36q32 0 36 -52h4q74 56 168 56zM180 862v-632q23 -156 156 -156h184q184 24 184 172v572
q0 145 -104 176q-32 8 -76 8h-164q-137 0 -176 -104q-4 -22 -4 -36z" />
    <glyph glyph-name="q" unicode="q" horiz-adv-x="876" 
d="M332 1074h196q94 0 168 -56h4q4 52 36 52q22 0 36 -36q0 -92 4 -284q-4 -845 -4 -1300q0 -27 -36 -40q-31 0 -36 48v596q0 8 -8 8q-54 -60 -156 -60h-188q-105 0 -200 96q-48 57 -48 144v596q0 175 164 228q32 8 68 8zM172 834v-588q0 -149 184 -172h164q141 0 172 124
q4 16 4 32v640q-25 132 -172 132h-172q-180 0 -180 -168z" />
    <glyph glyph-name="r" unicode="r" horiz-adv-x="876" 
d="M348 1064h192q152 0 212 -132q24 -52 24 -96q0 -21 -24 -36h-24q-19 0 -44 112q-42 80 -156 80h-168q-137 0 -176 -104q-8 -48 -8 -120v-724q0 -31 -24 -44h-24q-24 13 -24 44v764q0 17 -4 44q4 4 4 32v124q5 48 36 48t36 -48h4q74 56 168 56z" />
    <glyph glyph-name="s" unicode="s" horiz-adv-x="872" 
d="M348 1072h188q152 0 212 -132q24 -52 24 -96q0 -21 -24 -36h-24q-19 0 -44 112q-42 80 -156 80h-172q-125 0 -168 -100q-12 -26 -12 -68q0 -111 112 -148q29 -12 80 -12h168q150 0 224 -140q16 -50 16 -96v-196q0 -152 -148 -228q-50 -12 -88 -12h-200q-158 0 -224 152
q-12 46 -12 72q0 33 40 40q33 0 40 -92q44 -100 180 -100h160q138 0 168 112q12 32 12 68v168q0 118 -80 156q-51 24 -100 24h-180q-144 0 -220 132q-20 48 -20 104q0 160 152 220q47 16 96 16z" />
    <glyph glyph-name="t" unicode="t" horiz-adv-x="860" 
d="M324 1668q31 0 36 -48v-540q1 -8 8 -8h340q48 -5 48 -36t-48 -36h-340q-8 -1 -8 -8v-744q0 -176 184 -176q83 0 120 68q16 23 28 108l20 16h24q24 -14 24 -40q-24 -224 -220 -224h-16q-152 0 -212 132q-24 48 -24 112v748q0 8 -8 8h-136q-31 0 -44 24v24q13 24 44 24h136
q8 0 8 8v540q5 48 36 48z" />
    <glyph glyph-name="u" unicode="u" horiz-adv-x="876" 
d="M740 1068q31 0 36 -48v-780q-6 -166 -132 -220q-44 -20 -104 -20h-196q-78 0 -160 56h-8q-4 -52 -36 -52q-31 0 -36 48v120q0 39 -4 40q4 34 4 56v748q0 31 24 44h24q24 -13 24 -44v-724q0 -157 60 -184q56 -36 120 -36h172q176 0 176 180v768q5 48 36 48z" />
    <glyph glyph-name="v" unicode="v" horiz-adv-x="864" 
d="M132 1064q42 0 68 -140q8 -11 224 -756h8q240 798 268 876q19 16 32 16q26 0 32 -36q0 -17 -300 -1000q-16 -24 -40 -24q-36 0 -64 140q-220 726 -260 880v8q0 27 32 36z" />
    <glyph glyph-name="w" unicode="w" horiz-adv-x="1264" 
d="M132 1064q42 0 68 -140q8 -11 224 -756h8q160 529 160 536q-92 301 -92 316v8q0 27 32 36q42 0 68 -140q7 -9 28 -92q7 0 68 204q15 24 36 24q26 0 32 -36q0 -14 -92 -320v-8l152 -528h8q240 798 268 876q19 16 32 16q26 0 32 -36q0 -17 -300 -1000q-16 -24 -40 -24
q-36 0 -64 140q-8 19 -128 424h-4l-168 -548q-18 -16 -36 -16q-36 0 -64 140q-220 726 -260 880v8q0 27 32 36z" />
    <glyph glyph-name="x" unicode="x" horiz-adv-x="864" 
d="M136 1064q29 0 112 -156q178 -295 184 -300q15 15 264 436q17 16 32 16h4q32 -4 32 -32q0 -20 -100 -180l-188 -316q262 -438 288 -488v-12q-8 -28 -32 -28h-4q-34 0 -108 148q-4 0 -184 304h-4q-61 -93 -264 -436q-22 -20 -36 -20q-26 0 -32 36q10 40 244 416l44 80
q-262 438 -288 488v8q5 36 36 36z" />
    <glyph glyph-name="y" unicode="y" horiz-adv-x="868" 
d="M132 1066q42 0 68 -140q8 -11 224 -756q8 0 68 204l204 672q21 20 36 20q29 0 36 -40l-488 -1600q-17 -16 -32 -16q-26 0 -32 36q0 13 172 584v4l-288 988v8q0 27 32 36z" />
    <glyph glyph-name="z" unicode="z" horiz-adv-x="864" 
d="M148 1072h576q40 -5 40 -36q0 -30 -104 -188q-460 -770 -460 -776h520q40 -5 40 -36q0 -30 -40 -36h-580q-40 6 -40 36q0 26 72 136q492 819 492 828h-516q-48 5 -48 36t48 36z" />
    <glyph glyph-name="braceleft" unicode="{" 
 />
    <glyph glyph-name="bar" unicode="|" 
 />
    <glyph glyph-name="braceright" unicode="}" 
 />
    <glyph glyph-name="asciitilde" unicode="~" 
 />
    <glyph glyph-name="exclamdown" unicode="&#xa1;" horiz-adv-x="672" 
 />
    <glyph glyph-name="cent" unicode="&#xa2;" horiz-adv-x="1139" 
 />
    <glyph glyph-name="sterling" unicode="&#xa3;" 
 />
    <glyph glyph-name="currency" unicode="&#xa4;" 
 />
    <glyph glyph-name="yen" unicode="&#xa5;" horiz-adv-x="1262" 
 />
    <glyph glyph-name="brokenbar" unicode="&#xa6;" 
 />
    <glyph glyph-name="section" unicode="&#xa7;" 
 />
    <glyph glyph-name="dieresis" unicode="&#xa8;" horiz-adv-x="485" 
d="M152 1446q41 -12 41 -38v-9q-7 -41 -41 -41h-9q-43 7 -43 43q0 30 33 43q10 2 19 2zM145 1403v-2h5v2h-5zM344 1446q41 -12 41 -38v-9q-7 -41 -41 -41h-9q-43 7 -43 43q0 30 33 43q10 2 19 2zM337 1403v-2h5v2h-5z" />
    <glyph glyph-name="copyright" unicode="&#xa9;" horiz-adv-x="1674" 
 />
    <glyph glyph-name="ordfeminine" unicode="&#xaa;" horiz-adv-x="648" 
 />
    <glyph glyph-name="guillemotleft" unicode="&#xab;" horiz-adv-x="944" 
 />
    <glyph glyph-name="logicalnot" unicode="&#xac;" 
 />
    <glyph glyph-name="registered" unicode="&#xae;" horiz-adv-x="1674" 
 />
    <glyph glyph-name="macron" unicode="&#xaf;" horiz-adv-x="670" 
 />
    <glyph glyph-name="degree" unicode="&#xb0;" horiz-adv-x="674" 
 />
    <glyph glyph-name="plusminus" unicode="&#xb1;" 
 />
    <glyph glyph-name="uni00B2" unicode="&#xb2;" 
 />
    <glyph glyph-name="uni00B3" unicode="&#xb3;" 
 />
    <glyph glyph-name="acute" unicode="&#xb4;" horiz-adv-x="460" 
d="M324 1628h16q5 0 20 -20v-16q0 -23 -104 -116q-98 -108 -120 -108q-32 0 -36 40q0 17 188 196q14 24 36 24z" />
    <glyph glyph-name="mu" unicode="&#xb5;" horiz-adv-x="1180" 
 />
    <glyph glyph-name="paragraph" unicode="&#xb6;" horiz-adv-x="1024" 
 />
    <glyph glyph-name="periodcentered" unicode="&#xb7;" horiz-adv-x="508" 
 />
    <glyph glyph-name="periodcentered" unicode="&#x2219;" horiz-adv-x="508" 
 />
    <glyph glyph-name="cedilla" unicode="&#xb8;" horiz-adv-x="1024" 
 />
    <glyph glyph-name="uni00B9" unicode="&#xb9;" 
 />
    <glyph glyph-name="ordmasculine" unicode="&#xba;" horiz-adv-x="718" 
 />
    <glyph glyph-name="guillemotright" unicode="&#xbb;" horiz-adv-x="944" 
 />
    <glyph glyph-name="onequarter" unicode="&#xbc;" horiz-adv-x="1708" 
 />
    <glyph glyph-name="onehalf" unicode="&#xbd;" horiz-adv-x="1964" 
 />
    <glyph glyph-name="threequarters" unicode="&#xbe;" horiz-adv-x="1708" 
 />
    <glyph glyph-name="questiondown" unicode="&#xbf;" horiz-adv-x="748" 
 />
    <glyph glyph-name="Agrave" unicode="&#xc0;" horiz-adv-x="1264" 
d="M736 1664q38 0 64 -160q364 -1432 364 -1464v-4q0 -32 -32 -32h-12q-28 0 -64 192q-8 16 -152 596l-8 4h-440q-272 -741 -300 -788q-7 0 -24 -8q-26 0 -32 36v4q4 27 520 1396q74 209 88 220q16 8 28 8zM720 1500l-232 -628v-4h396v4l-156 628h-8zM529 2029h16
q22 0 116 -104q108 -98 108 -120q0 -32 -40 -36q-17 0 -196 188q-24 14 -24 36v16q0 5 20 20z" />
    <glyph glyph-name="Aacute" unicode="&#xc1;" horiz-adv-x="1264" 
d="M736 1664q38 0 64 -160q364 -1432 364 -1464v-4q0 -32 -32 -32h-12q-28 0 -64 192q-8 16 -152 596l-8 4h-440q-272 -741 -300 -788q-7 0 -24 -8q-26 0 -32 36v4q4 27 520 1396q74 209 88 220q16 8 28 8zM720 1500l-232 -628v-4h396v4l-156 628h-8zM919 2038h16
q6 0 20 -20v-16q0 -23 -104 -116q-97 -108 -120 -108q-32 0 -36 40q0 17 188 196q14 24 36 24z" />
    <glyph glyph-name="Acircumflex" unicode="&#xc2;" horiz-adv-x="1264" 
d="M736 1664q38 0 64 -160q364 -1432 364 -1464v-4q0 -32 -32 -32h-12q-28 0 -64 192q-8 16 -152 596l-8 4h-440q-272 -741 -300 -788q-7 0 -24 -8q-26 0 -32 36v4q4 27 520 1396q74 209 88 220q16 8 28 8zM720 1500l-232 -628v-4h396v4l-156 628h-8zM736 2027
q23 0 128 -116q100 -91 100 -112q0 -22 -32 -36q-28 0 -140 124l-56 52h-8q-175 -176 -188 -176h-4q-32 0 -36 40q0 17 196 204q9 20 40 20z" />
    <glyph glyph-name="Atilde" unicode="&#xc3;" horiz-adv-x="1264" 
d="M736 1664q38 0 64 -160q364 -1432 364 -1464v-4q0 -32 -32 -32h-12q-28 0 -64 192q-8 16 -152 596l-8 4h-440q-272 -741 -300 -788q-7 0 -24 -8q-26 0 -32 36v4q4 27 520 1396q74 209 88 220q16 8 28 8zM720 1500l-232 -628v-4h396v4l-156 628h-8zM554 2037
q82 0 288 -192q83 -80 128 -80h12q25 0 60 120q14 72 48 72q15 0 32 -24v-12q-36 -232 -152 -232q-82 0 -288 192q-81 80 -128 80h-12q-41 -27 -68 -144q0 -35 -40 -48q-26 0 -32 36v8q0 93 88 204q36 20 64 20z" />
    <glyph glyph-name="Adieresis" unicode="&#xc4;" horiz-adv-x="1264" 
d="M736 1664q38 0 64 -160q364 -1432 364 -1464v-4q0 -32 -32 -32h-12q-28 0 -64 192q-8 16 -152 596l-8 4h-440q-272 -741 -300 -788q-7 0 -24 -8q-26 0 -32 36v4q4 27 520 1396q74 209 88 220q16 8 28 8zM720 1500l-232 -628v-4h396v4l-156 628h-8zM642 1856
q41 -12 41 -38v-9q-7 -41 -41 -41h-10q-42 7 -42 43q0 30 33 43q9 2 19 2zM635 1813v-2h5v2h-5zM834 1856q41 -12 41 -38v-9q-7 -41 -41 -41h-10q-42 7 -42 43q0 30 33 43q9 2 19 2zM827 1813v-2h5v2h-5z" />
    <glyph glyph-name="Aring" unicode="&#xc5;" horiz-adv-x="1264" 
d="M736 1664q38 0 64 -160q364 -1432 364 -1464v-4q0 -32 -32 -32h-12q-28 0 -64 192q-8 16 -152 596l-8 4h-440q-272 -741 -300 -788q-7 0 -24 -8q-26 0 -32 36v4q4 27 520 1396q74 209 88 220q16 8 28 8zM720 1500l-232 -628v-4h396v4l-156 628h-8zM742 2037
q93 0 128 -104q8 -40 8 -48q0 -50 -72 -104q-37 -16 -68 -16q-113 0 -132 140q0 80 88 124q28 8 48 8zM682 1905v-12q0 -48 60 -56q60 15 60 52v4q-8 72 -64 72q-47 0 -56 -60z" />
    <glyph glyph-name="AE" unicode="&#xc6;" horiz-adv-x="2118" 
 />
    <glyph glyph-name="Ccedilla" unicode="&#xc7;" horiz-adv-x="1399" 
 />
    <glyph glyph-name="Egrave" unicode="&#xc8;" horiz-adv-x="1268" 
d="M144 1672h976q48 -5 48 -36t-48 -36h-940q-8 -1 -8 -8v-712q1 -8 8 -8h336q48 -5 48 -36t-48 -36h-336q-8 -1 -8 -8v-712q1 -8 8 -8h936q48 -5 48 -36t-48 -36h-972q-44 7 -44 44v1576q0 52 44 52zM481 2029h16q22 0 116 -104q108 -98 108 -120q0 -32 -40 -36
q-17 0 -196 188q-24 14 -24 36v16q0 5 20 20z" />
    <glyph glyph-name="Eacute" unicode="&#xc9;" horiz-adv-x="1268" 
d="M144 1672h976q48 -5 48 -36t-48 -36h-940q-8 -1 -8 -8v-712q1 -8 8 -8h336q48 -5 48 -36t-48 -36h-336q-8 -1 -8 -8v-712q1 -8 8 -8h936q48 -5 48 -36t-48 -36h-972q-44 7 -44 44v1576q0 52 44 52zM771 2038h16q6 0 20 -20v-16q0 -23 -104 -116q-97 -108 -120 -108
q-32 0 -36 40q0 17 188 196q14 24 36 24z" />
    <glyph glyph-name="Ecircumflex" unicode="&#xca;" horiz-adv-x="1268" 
d="M144 1672h976q48 -5 48 -36t-48 -36h-940q-8 -1 -8 -8v-712q1 -8 8 -8h336q48 -5 48 -36t-48 -36h-336q-8 -1 -8 -8v-712q1 -8 8 -8h936q48 -5 48 -36t-48 -36h-972q-44 7 -44 44v1576q0 52 44 52zM638 2027q23 0 128 -116q100 -91 100 -112q0 -22 -32 -36
q-28 0 -140 124l-56 52h-8q-175 -176 -188 -176h-4q-32 0 -36 40q0 17 196 204q9 20 40 20z" />
    <glyph glyph-name="Edieresis" unicode="&#xcb;" horiz-adv-x="1268" 
d="M144 1672h976q48 -5 48 -36t-48 -36h-940q-8 -1 -8 -8v-712q1 -8 8 -8h336q48 -5 48 -36t-48 -36h-336q-8 -1 -8 -8v-712q1 -8 8 -8h936q48 -5 48 -36t-48 -36h-972q-44 7 -44 44v1576q0 52 44 52zM544 1856q41 -12 41 -38v-9q-7 -41 -41 -41h-10q-42 7 -42 43
q0 30 33 43q9 2 19 2zM537 1813v-2h5v2h-5zM736 1856q41 -12 41 -38v-9q-7 -41 -41 -41h-10q-42 7 -42 43q0 30 33 43q9 2 19 2zM729 1813v-2h5v2h-5z" />
    <glyph glyph-name="Igrave" unicode="&#xcc;" horiz-adv-x="860" 
d="M148 1672h564q48 -5 48 -36t-48 -36h-236q-8 -1 -8 -8v-1512q1 -8 8 -8h236q48 -5 48 -36t-48 -36h-564q-48 5 -48 36t48 36h240q8 0 8 8v1512q0 8 -8 8h-240q-48 5 -48 36t48 36zM277 2029h16q22 0 116 -104q108 -98 108 -120q0 -32 -40 -36q-17 0 -196 188
q-24 14 -24 36v16q0 5 20 20z" />
    <glyph glyph-name="Iacute" unicode="&#xcd;" horiz-adv-x="860" 
d="M148 1672h564q48 -5 48 -36t-48 -36h-236q-8 -1 -8 -8v-1512q1 -8 8 -8h236q48 -5 48 -36t-48 -36h-564q-48 5 -48 36t48 36h240q8 0 8 8v1512q0 8 -8 8h-240q-48 5 -48 36t48 36zM567 2038h16q6 0 20 -20v-16q0 -23 -104 -116q-97 -108 -120 -108q-32 0 -36 40
q0 17 188 196q14 24 36 24z" />
    <glyph glyph-name="Icircumflex" unicode="&#xce;" horiz-adv-x="860" 
d="M148 1672h564q48 -5 48 -36t-48 -36h-236q-8 -1 -8 -8v-1512q1 -8 8 -8h236q48 -5 48 -36t-48 -36h-564q-48 5 -48 36t48 36h240q8 0 8 8v1512q0 8 -8 8h-240q-48 5 -48 36t48 36zM434 2027q23 0 128 -116q100 -91 100 -112q0 -22 -32 -36q-28 0 -140 124l-56 52h-8
q-175 -176 -188 -176h-4q-32 0 -36 40q0 17 196 204q9 20 40 20z" />
    <glyph glyph-name="Idieresis" unicode="&#xcf;" horiz-adv-x="860" 
d="M148 1672h564q48 -5 48 -36t-48 -36h-236q-8 -1 -8 -8v-1512q1 -8 8 -8h236q48 -5 48 -36t-48 -36h-564q-48 5 -48 36t48 36h240q8 0 8 8v1512q0 8 -8 8h-240q-48 5 -48 36t48 36zM340 1856q41 -12 41 -38v-9q-7 -41 -41 -41h-10q-42 7 -42 43q0 30 33 43q9 2 19 2z
M333 1813v-2h5v2h-5zM532 1856q41 -12 41 -38v-9q-7 -41 -41 -41h-10q-42 7 -42 43q0 30 33 43q9 2 19 2zM525 1813v-2h5v2h-5z" />
    <glyph glyph-name="Eth" unicode="&#xd0;" horiz-adv-x="1518" 
 />
    <glyph glyph-name="Ntilde" unicode="&#xd1;" horiz-adv-x="1272" 
d="M140 1664q27 0 68 -80q882 -1406 884 -1416h8v1452q6 40 36 40q31 0 36 -40v-1580q-5 -40 -40 -40q-27 0 -68 80q-882 1406 -884 1416h-8v-1448q-5 -48 -36 -48t-36 48v1576q5 40 40 40zM428 2037q82 0 288 -192q83 -80 128 -80h12q25 0 60 120q14 72 48 72q15 0 32 -24
v-12q-36 -232 -152 -232q-82 0 -288 192q-81 80 -128 80h-12q-41 -27 -68 -144q0 -35 -40 -48q-26 0 -32 36v8q0 93 88 204q36 20 64 20z" />
    <glyph glyph-name="Ograve" unicode="&#xd2;" horiz-adv-x="1272" 
d="M528 1672h200q175 0 340 -144q104 -123 104 -288v-792q0 -180 -132 -332q-119 -116 -300 -116h-196q-208 0 -356 160q-88 112 -88 268v800q0 208 160 356q111 88 268 88zM172 1200v-748q0 -254 204 -344q98 -36 192 -36h140q191 0 276 92q116 122 116 308v744
q0 279 -248 360q-75 24 -152 24h-156q-280 0 -356 -264q-16 -64 -16 -136zM483 2029h16q22 0 116 -104q108 -98 108 -120q0 -32 -40 -36q-17 0 -196 188q-24 14 -24 36v16q0 5 20 20z" />
    <glyph glyph-name="Oacute" unicode="&#xd3;" horiz-adv-x="1272" 
d="M528 1672h200q175 0 340 -144q104 -123 104 -288v-792q0 -180 -132 -332q-119 -116 -300 -116h-196q-208 0 -356 160q-88 112 -88 268v800q0 208 160 356q111 88 268 88zM172 1200v-748q0 -254 204 -344q98 -36 192 -36h140q191 0 276 92q116 122 116 308v744
q0 279 -248 360q-75 24 -152 24h-156q-280 0 -356 -264q-16 -64 -16 -136zM773 2038h16q6 0 20 -20v-16q0 -23 -104 -116q-97 -108 -120 -108q-32 0 -36 40q0 17 188 196q14 24 36 24z" />
    <glyph glyph-name="Ocircumflex" unicode="&#xd4;" horiz-adv-x="1272" 
d="M528 1672h200q175 0 340 -144q104 -123 104 -288v-792q0 -180 -132 -332q-119 -116 -300 -116h-196q-208 0 -356 160q-88 112 -88 268v800q0 208 160 356q111 88 268 88zM172 1200v-748q0 -254 204 -344q98 -36 192 -36h140q191 0 276 92q116 122 116 308v744
q0 279 -248 360q-75 24 -152 24h-156q-280 0 -356 -264q-16 -64 -16 -136zM640 2027q23 0 128 -116q100 -91 100 -112q0 -22 -32 -36q-28 0 -140 124l-56 52h-8q-175 -176 -188 -176h-4q-32 0 -36 40q0 17 196 204q9 20 40 20z" />
    <glyph glyph-name="Otilde" unicode="&#xd5;" horiz-adv-x="1272" 
d="M528 1672h200q175 0 340 -144q104 -123 104 -288v-792q0 -180 -132 -332q-119 -116 -300 -116h-196q-208 0 -356 160q-88 112 -88 268v800q0 208 160 356q111 88 268 88zM172 1200v-748q0 -254 204 -344q98 -36 192 -36h140q191 0 276 92q116 122 116 308v744
q0 279 -248 360q-75 24 -152 24h-156q-280 0 -356 -264q-16 -64 -16 -136zM428 2037q82 0 288 -192q83 -80 128 -80h12q25 0 60 120q14 72 48 72q15 0 32 -24v-12q-36 -232 -152 -232q-82 0 -288 192q-81 80 -128 80h-12q-41 -27 -68 -144q0 -35 -40 -48q-26 0 -32 36v8
q0 93 88 204q36 20 64 20z" />
    <glyph glyph-name="Odieresis" unicode="&#xd6;" horiz-adv-x="1272" 
d="M528 1672h200q175 0 340 -144q104 -123 104 -288v-792q0 -180 -132 -332q-119 -116 -300 -116h-196q-208 0 -356 160q-88 112 -88 268v800q0 208 160 356q111 88 268 88zM172 1200v-748q0 -254 204 -344q98 -36 192 -36h140q191 0 276 92q116 122 116 308v744
q0 279 -248 360q-75 24 -152 24h-156q-280 0 -356 -264q-16 -64 -16 -136zM546 1856q41 -12 41 -38v-9q-7 -41 -41 -41h-10q-42 7 -42 43q0 30 33 43q9 2 19 2zM539 1813v-2h5v2h-5zM738 1856q41 -12 41 -38v-9q-7 -41 -41 -41h-10q-42 7 -42 43q0 30 33 43q9 2 19 2z
M731 1813v-2h5v2h-5z" />
    <glyph glyph-name="multiply" unicode="&#xd7;" 
 />
    <glyph glyph-name="Oslash" unicode="&#xd8;" horiz-adv-x="1614" 
 />
    <glyph glyph-name="Ugrave" unicode="&#xd9;" horiz-adv-x="1272" 
d="M136 1668q31 0 36 -48v-1164q0 -280 228 -364q60 -20 168 -20h148q283 0 368 236q16 68 16 152v1164q6 40 36 40q31 0 36 -40v-1188q0 -300 -268 -408q-100 -28 -164 -28h-204q-290 0 -400 248q-36 106 -36 184v1188q5 48 36 48zM483 2029h16q22 0 116 -104
q108 -98 108 -120q0 -32 -40 -36q-17 0 -196 188q-24 14 -24 36v16q0 5 20 20z" />
    <glyph glyph-name="Uacute" unicode="&#xda;" horiz-adv-x="1272" 
d="M136 1668q31 0 36 -48v-1164q0 -280 228 -364q60 -20 168 -20h148q283 0 368 236q16 68 16 152v1164q6 40 36 40q31 0 36 -40v-1188q0 -300 -268 -408q-100 -28 -164 -28h-204q-290 0 -400 248q-36 106 -36 184v1188q5 48 36 48zM773 2038h16q6 0 20 -20v-16
q0 -23 -104 -116q-97 -108 -120 -108q-32 0 -36 40q0 17 188 196q14 24 36 24z" />
    <glyph glyph-name="Ucircumflex" unicode="&#xdb;" horiz-adv-x="1272" 
d="M136 1668q31 0 36 -48v-1164q0 -280 228 -364q60 -20 168 -20h148q283 0 368 236q16 68 16 152v1164q6 40 36 40q31 0 36 -40v-1188q0 -300 -268 -408q-100 -28 -164 -28h-204q-290 0 -400 248q-36 106 -36 184v1188q5 48 36 48zM640 2027q23 0 128 -116
q100 -91 100 -112q0 -22 -32 -36q-28 0 -140 124l-56 52h-8q-175 -176 -188 -176h-4q-32 0 -36 40q0 17 196 204q9 20 40 20z" />
    <glyph glyph-name="Udieresis" unicode="&#xdc;" horiz-adv-x="1272" 
d="M136 1668q31 0 36 -48v-1164q0 -280 228 -364q60 -20 168 -20h148q283 0 368 236q16 68 16 152v1164q6 40 36 40q31 0 36 -40v-1188q0 -300 -268 -408q-100 -28 -164 -28h-204q-290 0 -400 248q-36 106 -36 184v1188q5 48 36 48zM546 1856q41 -12 41 -38v-9
q-7 -41 -41 -41h-10q-42 7 -42 43q0 30 33 43q9 2 19 2zM539 1813v-2h5v2h-5zM738 1856q41 -12 41 -38v-9q-7 -41 -41 -41h-10q-42 7 -42 43q0 30 33 43q9 2 19 2zM731 1813v-2h5v2h-5z" />
    <glyph glyph-name="Yacute" unicode="&#xdd;" horiz-adv-x="1264" 
d="M136 1664q29 0 124 -172q9 -5 368 -588h8q438 710 472 752l20 4q36 -5 36 -36q-12 -36 -388 -628q-108 -172 -108 -188v-760q-5 -48 -36 -48t-36 48v756q0 24 -64 120q-414 658 -432 696v8q5 36 36 36zM769 2038h16q6 0 20 -20v-16q0 -23 -104 -116q-97 -108 -120 -108
q-32 0 -36 40q0 17 188 196q14 24 36 24z" />
    <glyph glyph-name="Thorn" unicode="&#xde;" horiz-adv-x="1120" 
 />
    <glyph glyph-name="germandbls" unicode="&#xdf;" horiz-adv-x="1251" 
 />
    <glyph glyph-name="agrave" unicode="&#xe0;" horiz-adv-x="876" 
d="M332 1088h196q181 0 236 -168q8 -32 8 -68v-16q0 -294 4 -520q-4 -107 -4 -276q-5 -40 -40 -40q-32 8 -32 48v24h-4q-67 -56 -160 -56h-204q-165 0 -224 164q-8 38 -8 60v216q0 190 188 228q15 4 44 4h192q96 0 168 -56h8v200q0 184 -184 184h-168q-124 0 -160 -88
q-20 -95 -36 -104h-28q-24 14 -24 40q0 139 144 212q54 12 88 12zM172 452v-188q0 -176 184 -176h160q124 0 160 80q20 44 20 64v252q0 92 -136 128q-21 4 -48 4h-168q-172 0 -172 -164zM285 1619h16q22 0 116 -104q108 -98 108 -120q0 -32 -40 -36q-17 0 -196 188
q-24 14 -24 36v16q0 5 20 20z" />
    <glyph glyph-name="aacute" unicode="&#xe1;" horiz-adv-x="876" 
d="M332 1088h196q181 0 236 -168q8 -32 8 -68v-16q0 -294 4 -520q-4 -107 -4 -276q-5 -40 -40 -40q-32 8 -32 48v24h-4q-67 -56 -160 -56h-204q-165 0 -224 164q-8 38 -8 60v216q0 190 188 228q15 4 44 4h192q96 0 168 -56h8v200q0 184 -184 184h-168q-124 0 -160 -88
q-20 -95 -36 -104h-28q-24 14 -24 40q0 139 144 212q54 12 88 12zM172 452v-188q0 -176 184 -176h160q124 0 160 80q20 44 20 64v252q0 92 -136 128q-21 4 -48 4h-168q-172 0 -172 -164zM575 1628h16q6 0 20 -20v-16q0 -23 -104 -116q-97 -108 -120 -108q-32 0 -36 40
q0 17 188 196q14 24 36 24z" />
    <glyph glyph-name="acircumflex" unicode="&#xe2;" horiz-adv-x="876" 
d="M332 1088h196q181 0 236 -168q8 -32 8 -68v-16q0 -294 4 -520q-4 -107 -4 -276q-5 -40 -40 -40q-32 8 -32 48v24h-4q-67 -56 -160 -56h-204q-165 0 -224 164q-8 38 -8 60v216q0 190 188 228q15 4 44 4h192q96 0 168 -56h8v200q0 184 -184 184h-168q-124 0 -160 -88
q-20 -95 -36 -104h-28q-24 14 -24 40q0 139 144 212q54 12 88 12zM172 452v-188q0 -176 184 -176h160q124 0 160 80q20 44 20 64v252q0 92 -136 128q-21 4 -48 4h-168q-172 0 -172 -164zM442 1617q23 0 128 -116q100 -91 100 -112q0 -22 -32 -36q-28 0 -140 124l-56 52h-8
q-175 -176 -188 -176h-4q-32 0 -36 40q0 17 196 204q9 20 40 20z" />
    <glyph glyph-name="atilde" unicode="&#xe3;" horiz-adv-x="920" 
d="M354 1088h196q181 0 236 -168q8 -32 8 -68v-16q0 -294 4 -520q-4 -107 -4 -276q-5 -40 -40 -40q-32 8 -32 48v24h-4q-67 -56 -160 -56h-204q-165 0 -224 164q-8 38 -8 60v216q0 190 188 228q15 4 44 4h192q96 0 168 -56h8v200q0 184 -184 184h-168q-124 0 -160 -88
q-20 -95 -36 -104h-28q-24 14 -24 40q0 139 144 212q54 12 88 12zM194 452v-188q0 -176 184 -176h160q124 0 160 80q20 44 20 64v252q0 92 -136 128q-21 4 -48 4h-168q-172 0 -172 -164zM252 1627q82 0 288 -192q83 -80 128 -80h12q25 0 60 120q14 72 48 72q15 0 32 -24v-12
q-36 -232 -152 -232q-82 0 -288 192q-81 80 -128 80h-12q-41 -27 -68 -144q0 -35 -40 -48q-26 0 -32 36v8q0 93 88 204q36 20 64 20z" />
    <glyph glyph-name="adieresis" unicode="&#xe4;" horiz-adv-x="876" 
d="M332 1088h196q181 0 236 -168q8 -32 8 -68v-16q0 -294 4 -520q-4 -107 -4 -276q-5 -40 -40 -40q-32 8 -32 48v24h-4q-67 -56 -160 -56h-204q-165 0 -224 164q-8 38 -8 60v216q0 190 188 228q15 4 44 4h192q96 0 168 -56h8v200q0 184 -184 184h-168q-124 0 -160 -88
q-20 -95 -36 -104h-28q-24 14 -24 40q0 139 144 212q54 12 88 12zM172 452v-188q0 -176 184 -176h160q124 0 160 80q20 44 20 64v252q0 92 -136 128q-21 4 -48 4h-168q-172 0 -172 -164zM348 1446q41 -12 41 -38v-9q-7 -41 -41 -41h-10q-42 7 -42 43q0 30 33 43q9 2 19 2z
M341 1403v-2h5v2h-5zM540 1446q41 -12 41 -38v-9q-7 -41 -41 -41h-10q-42 7 -42 43q0 30 33 43q9 2 19 2zM533 1403v-2h5v2h-5z" />
    <glyph glyph-name="aring" unicode="&#xe5;" horiz-adv-x="876" 
d="M332 1088h196q181 0 236 -168q8 -32 8 -68v-16q0 -294 4 -520q-4 -107 -4 -276q-5 -40 -40 -40q-32 8 -32 48v24h-4q-67 -56 -160 -56h-204q-165 0 -224 164q-8 38 -8 60v216q0 190 188 228q15 4 44 4h192q96 0 168 -56h8v200q0 184 -184 184h-168q-124 0 -160 -88
q-20 -95 -36 -104h-28q-24 14 -24 40q0 139 144 212q54 12 88 12zM172 452v-188q0 -176 184 -176h160q124 0 160 80q20 44 20 64v252q0 92 -136 128q-21 4 -48 4h-168q-172 0 -172 -164zM438 1627q93 0 128 -104q8 -40 8 -48q0 -50 -72 -104q-37 -16 -68 -16
q-113 0 -132 140q0 80 88 124q28 8 48 8zM378 1495v-12q0 -48 60 -56q60 15 60 52v4q-8 72 -64 72q-47 0 -56 -60z" />
    <glyph glyph-name="ae" unicode="&#xe6;" horiz-adv-x="1454" 
 />
    <glyph glyph-name="ccedilla" unicode="&#xe7;" horiz-adv-x="905" 
 />
    <glyph glyph-name="egrave" unicode="&#xe8;" horiz-adv-x="872" 
d="M324 1072h204q181 0 236 -168q8 -32 8 -68v-184q0 -52 -44 -52h-548q-8 -1 -8 -8v-344q0 -176 188 -176h156q130 0 164 88q22 88 40 104q12 0 12 4q40 -11 40 -40q0 -101 -96 -188q-61 -40 -140 -40h-200q-158 0 -224 152q-12 43 -12 72v604q0 161 140 228q50 16 84 16z
M172 816v-136q1 -8 8 -8h512q8 0 8 8v136q0 184 -184 184h-168q-176 0 -176 -184zM283 1619h16q22 0 116 -104q108 -98 108 -120q0 -32 -40 -36q-17 0 -196 188q-24 14 -24 36v16q0 5 20 20z" />
    <glyph glyph-name="eacute" unicode="&#xe9;" horiz-adv-x="872" 
d="M324 1072h204q181 0 236 -168q8 -32 8 -68v-184q0 -52 -44 -52h-548q-8 -1 -8 -8v-344q0 -176 188 -176h156q130 0 164 88q22 88 40 104q12 0 12 4q40 -11 40 -40q0 -101 -96 -188q-61 -40 -140 -40h-200q-158 0 -224 152q-12 43 -12 72v604q0 161 140 228q50 16 84 16z
M172 816v-136q1 -8 8 -8h512q8 0 8 8v136q0 184 -184 184h-168q-176 0 -176 -184zM573 1628h16q6 0 20 -20v-16q0 -23 -104 -116q-97 -108 -120 -108q-32 0 -36 40q0 17 188 196q14 24 36 24z" />
    <glyph glyph-name="ecircumflex" unicode="&#xea;" horiz-adv-x="872" 
d="M324 1072h204q181 0 236 -168q8 -32 8 -68v-184q0 -52 -44 -52h-548q-8 -1 -8 -8v-344q0 -176 188 -176h156q130 0 164 88q22 88 40 104q12 0 12 4q40 -11 40 -40q0 -101 -96 -188q-61 -40 -140 -40h-200q-158 0 -224 152q-12 43 -12 72v604q0 161 140 228q50 16 84 16z
M172 816v-136q1 -8 8 -8h512q8 0 8 8v136q0 184 -184 184h-168q-176 0 -176 -184zM440 1617q23 0 128 -116q100 -91 100 -112q0 -22 -32 -36q-28 0 -140 124l-56 52h-8q-175 -176 -188 -176h-4q-32 0 -36 40q0 17 196 204q9 20 40 20z" />
    <glyph glyph-name="edieresis" unicode="&#xeb;" horiz-adv-x="872" 
d="M324 1072h204q181 0 236 -168q8 -32 8 -68v-184q0 -52 -44 -52h-548q-8 -1 -8 -8v-344q0 -176 188 -176h156q130 0 164 88q22 88 40 104q12 0 12 4q40 -11 40 -40q0 -101 -96 -188q-61 -40 -140 -40h-200q-158 0 -224 152q-12 43 -12 72v604q0 161 140 228q50 16 84 16z
M172 816v-136q1 -8 8 -8h512q8 0 8 8v136q0 184 -184 184h-168q-176 0 -176 -184zM346 1446q41 -12 41 -38v-9q-7 -41 -41 -41h-10q-42 7 -42 43q0 30 33 43q9 2 19 2zM339 1403v-2h5v2h-5zM538 1446q41 -12 41 -38v-9q-7 -41 -41 -41h-10q-42 7 -42 43q0 30 33 43q9 2 19 2
zM531 1403v-2h5v2h-5z" />
    <glyph glyph-name="igrave" unicode="&#xec;" horiz-adv-x="460" 
d="M261 1256h24q24 -13 24 -44v-1164q-5 -48 -36 -48t-36 48v1164q0 31 24 44zM120 1619h16q22 0 116 -104q108 -98 108 -120q0 -32 -40 -36q-17 0 -196 188q-24 14 -24 36v16q0 5 20 20z" />
    <glyph glyph-name="iacute" unicode="&#xed;" horiz-adv-x="460" 
d="M175 1256h24q24 -13 24 -44v-1164q-5 -48 -36 -48t-36 48v1164q0 31 24 44zM324 1628h16q6 0 20 -20v-16q0 -23 -104 -116q-97 -108 -120 -108q-32 0 -36 40q0 17 188 196q14 24 36 24z" />
    <glyph glyph-name="icircumflex" unicode="&#xee;" horiz-adv-x="664" 
d="M320 1256h24q24 -13 24 -44v-1164q-5 -48 -36 -48t-36 48v1164q0 31 24 44zM336 1617q23 0 128 -116q100 -91 100 -112q0 -22 -32 -36q-28 0 -140 124l-56 52h-8q-175 -176 -188 -176h-4q-32 0 -36 40q0 17 196 204q9 20 40 20z" />
    <glyph glyph-name="idieresis" unicode="&#xef;" horiz-adv-x="485" 
d="M230 1256h24q24 -13 24 -44v-1164q-5 -48 -36 -48t-36 48v1164q0 31 24 44zM152 1446q41 -12 41 -38v-9q-7 -41 -41 -41h-10q-42 7 -42 43q0 30 33 43q9 2 19 2zM145 1403v-2h5v2h-5zM344 1446q41 -12 41 -38v-9q-7 -41 -41 -41h-10q-42 7 -42 43q0 30 33 43q9 2 19 2z
M337 1403v-2h5v2h-5z" />
    <glyph glyph-name="eth" unicode="&#xf0;" horiz-adv-x="1139" 
 />
    <glyph glyph-name="ntilde" unicode="&#xf1;" horiz-adv-x="920" 
d="M358 1064h200q190 0 236 -184q4 -26 4 -52v-784q0 -31 -24 -44h-24q-24 13 -24 44v772q0 176 -180 176h-172q-124 0 -160 -88q-16 -41 -16 -136v-720q-5 -48 -36 -48t-36 48v756q0 17 -4 44q4 4 4 32v132q5 48 36 48q40 -17 40 -48q69 52 156 52zM252 1627q82 0 288 -192
q83 -80 128 -80h12q25 0 60 120q14 72 48 72q15 0 32 -24v-12q-36 -232 -152 -232q-82 0 -288 192q-81 80 -128 80h-12q-41 -27 -68 -144q0 -35 -40 -48q-26 0 -32 36v8q0 93 88 204q36 20 64 20z" />
    <glyph glyph-name="ograve" unicode="&#xf2;" horiz-adv-x="872" 
d="M336 1072h188q105 0 200 -96q48 -57 48 -144v-604q0 -163 -164 -220q-40 -8 -72 -8h-192q-161 0 -228 140q-16 50 -16 84v608q0 128 116 212q58 28 120 28zM172 808v-560q0 -176 188 -176h164q176 0 176 180v576q0 149 -184 172h-168q-137 0 -168 -124q-8 -32 -8 -68z
M283 1619h16q22 0 116 -104q108 -98 108 -120q0 -32 -40 -36q-17 0 -196 188q-24 14 -24 36v16q0 5 20 20z" />
    <glyph glyph-name="oacute" unicode="&#xf3;" horiz-adv-x="872" 
d="M336 1072h188q105 0 200 -96q48 -57 48 -144v-604q0 -163 -164 -220q-40 -8 -72 -8h-192q-161 0 -228 140q-16 50 -16 84v608q0 128 116 212q58 28 120 28zM172 808v-560q0 -176 188 -176h164q176 0 176 180v576q0 149 -184 172h-168q-137 0 -168 -124q-8 -32 -8 -68z
M573 1628h16q6 0 20 -20v-16q0 -23 -104 -116q-97 -108 -120 -108q-32 0 -36 40q0 17 188 196q14 24 36 24z" />
    <glyph glyph-name="ocircumflex" unicode="&#xf4;" horiz-adv-x="872" 
d="M336 1072h188q105 0 200 -96q48 -57 48 -144v-604q0 -163 -164 -220q-40 -8 -72 -8h-192q-161 0 -228 140q-16 50 -16 84v608q0 128 116 212q58 28 120 28zM172 808v-560q0 -176 188 -176h164q176 0 176 180v576q0 149 -184 172h-168q-137 0 -168 -124q-8 -32 -8 -68z
M440 1617q23 0 128 -116q100 -91 100 -112q0 -22 -32 -36q-28 0 -140 124l-56 52h-8q-175 -176 -188 -176h-4q-32 0 -36 40q0 17 196 204q9 20 40 20z" />
    <glyph glyph-name="otilde" unicode="&#xf5;" horiz-adv-x="920" 
d="M360 1072h188q105 0 200 -96q48 -57 48 -144v-604q0 -163 -164 -220q-40 -8 -72 -8h-192q-161 0 -228 140q-16 50 -16 84v608q0 128 116 212q58 28 120 28zM196 808v-560q0 -176 188 -176h164q176 0 176 180v576q0 149 -184 172h-168q-137 0 -168 -124q-8 -32 -8 -68z
M252 1627q82 0 288 -192q83 -80 128 -80h12q25 0 60 120q14 72 48 72q15 0 32 -24v-12q-36 -232 -152 -232q-82 0 -288 192q-81 80 -128 80h-12q-41 -27 -68 -144q0 -35 -40 -48q-26 0 -32 36v8q0 93 88 204q36 20 64 20z" />
    <glyph glyph-name="odieresis" unicode="&#xf6;" horiz-adv-x="872" 
d="M336 1072h188q105 0 200 -96q48 -57 48 -144v-604q0 -163 -164 -220q-40 -8 -72 -8h-192q-161 0 -228 140q-16 50 -16 84v608q0 128 116 212q58 28 120 28zM172 808v-560q0 -176 188 -176h164q176 0 176 180v576q0 149 -184 172h-168q-137 0 -168 -124q-8 -32 -8 -68z
M346 1446q41 -12 41 -38v-9q-7 -41 -41 -41h-10q-42 7 -42 43q0 30 33 43q9 2 19 2zM339 1403v-2h5v2h-5zM538 1446q41 -12 41 -38v-9q-7 -41 -41 -41h-10q-42 7 -42 43q0 30 33 43q9 2 19 2zM531 1403v-2h5v2h-5z" />
    <glyph glyph-name="divide" unicode="&#xf7;" 
 />
    <glyph glyph-name="oslash" unicode="&#xf8;" horiz-adv-x="1010" 
 />
    <glyph glyph-name="ugrave" unicode="&#xf9;" horiz-adv-x="876" 
d="M740 1068q31 0 36 -48v-780q-6 -166 -132 -220q-44 -20 -104 -20h-196q-78 0 -160 56h-8q-4 -52 -36 -52q-31 0 -36 48v120q0 39 -4 40q4 34 4 56v748q0 31 24 44h24q24 -13 24 -44v-724q0 -157 60 -184q56 -36 120 -36h172q176 0 176 180v768q5 48 36 48zM285 1619h16
q22 0 116 -104q108 -98 108 -120q0 -32 -40 -36q-17 0 -196 188q-24 14 -24 36v16q0 5 20 20z" />
    <glyph glyph-name="uacute" unicode="&#xfa;" horiz-adv-x="876" 
d="M740 1068q31 0 36 -48v-780q-6 -166 -132 -220q-44 -20 -104 -20h-196q-78 0 -160 56h-8q-4 -52 -36 -52q-31 0 -36 48v120q0 39 -4 40q4 34 4 56v748q0 31 24 44h24q24 -13 24 -44v-724q0 -157 60 -184q56 -36 120 -36h172q176 0 176 180v768q5 48 36 48zM575 1628h16
q6 0 20 -20v-16q0 -23 -104 -116q-97 -108 -120 -108q-32 0 -36 40q0 17 188 196q14 24 36 24z" />
    <glyph glyph-name="ucircumflex" unicode="&#xfb;" horiz-adv-x="876" 
d="M740 1068q31 0 36 -48v-780q-6 -166 -132 -220q-44 -20 -104 -20h-196q-78 0 -160 56h-8q-4 -52 -36 -52q-31 0 -36 48v120q0 39 -4 40q4 34 4 56v748q0 31 24 44h24q24 -13 24 -44v-724q0 -157 60 -184q56 -36 120 -36h172q176 0 176 180v768q5 48 36 48zM442 1617
q23 0 128 -116q100 -91 100 -112q0 -22 -32 -36q-28 0 -140 124l-56 52h-8q-175 -176 -188 -176h-4q-32 0 -36 40q0 17 196 204q9 20 40 20z" />
    <glyph glyph-name="udieresis" unicode="&#xfc;" horiz-adv-x="876" 
d="M740 1068q31 0 36 -48v-780q-6 -166 -132 -220q-44 -20 -104 -20h-196q-78 0 -160 56h-8q-4 -52 -36 -52q-31 0 -36 48v120q0 39 -4 40q4 34 4 56v748q0 31 24 44h24q24 -13 24 -44v-724q0 -157 60 -184q56 -36 120 -36h172q176 0 176 180v768q5 48 36 48zM348 1446
q41 -12 41 -38v-9q-7 -41 -41 -41h-10q-42 7 -42 43q0 30 33 43q9 2 19 2zM341 1403v-2h5v2h-5zM540 1446q41 -12 41 -38v-9q-7 -41 -41 -41h-10q-42 7 -42 43q0 30 33 43q9 2 19 2zM533 1403v-2h5v2h-5z" />
    <glyph glyph-name="yacute" unicode="&#xfd;" horiz-adv-x="868" 
 />
    <glyph glyph-name="thorn" unicode="&#xfe;" horiz-adv-x="1010" 
 />
    <glyph glyph-name="ydieresis" unicode="&#xff;" horiz-adv-x="868" 
 />
    <glyph glyph-name="dotlessi" unicode="&#x131;" horiz-adv-x="272" 
d="M124 1256h24q24 -13 24 -44v-1164q-5 -48 -36 -48t-36 48v1164q0 31 24 44z" />
    <glyph glyph-name="circumflex" unicode="&#x2c6;" horiz-adv-x="664" 
d="M336 1617q23 0 128 -116q100 -91 100 -112q0 -22 -32 -36q-28 0 -140 124l-56 52h-8q-175 -176 -188 -176h-4q-32 0 -36 40q0 17 196 204q9 20 40 20z" />
    <glyph glyph-name="caron" unicode="&#x2c7;" horiz-adv-x="1024" 
 />
    <glyph glyph-name="uni02C9" unicode="&#x2c9;" horiz-adv-x="1024" 
 />
    <glyph glyph-name="breve" unicode="&#x2d8;" horiz-adv-x="1024" 
 />
    <glyph glyph-name="dotaccent" unicode="&#x2d9;" horiz-adv-x="1024" 
 />
    <glyph glyph-name="ring" unicode="&#x2da;" horiz-adv-x="472" 
d="M236 1627q93 0 128 -104q8 -40 8 -48q0 -50 -72 -104q-37 -16 -68 -16q-113 0 -132 140q0 80 88 124q28 8 48 8zM176 1495v-12q0 -48 60 -56q60 15 60 52v4q-8 72 -64 72q-47 0 -56 -60z" />
    <glyph glyph-name="ogonek" unicode="&#x2db;" horiz-adv-x="1024" 
 />
    <glyph glyph-name="tilde" unicode="&#x2dc;" horiz-adv-x="920" 
d="M252 1627q82 0 288 -192q83 -80 128 -80h12q25 0 60 120q14 72 48 72q15 0 32 -24v-12q-36 -232 -152 -232q-82 0 -288 192q-81 80 -128 80h-12q-41 -27 -68 -144q0 -35 -40 -48q-26 0 -32 36v8q0 93 88 204q36 20 64 20z" />
    <glyph glyph-name="hungarumlaut" unicode="&#x2dd;" horiz-adv-x="1024" 
 />
    <glyph glyph-name="endash" unicode="&#x2013;" horiz-adv-x="1108" 
 />
    <glyph glyph-name="emdash" unicode="&#x2014;" horiz-adv-x="2048" 
 />
    <glyph glyph-name="quoteleft" unicode="&#x2018;" horiz-adv-x="557" 
 />
    <glyph glyph-name="quoteright" unicode="&#x2019;" horiz-adv-x="557" 
 />
    <glyph glyph-name="quotesinglbase" unicode="&#x201a;" horiz-adv-x="557" 
 />
    <glyph glyph-name="quotedblleft" unicode="&#x201c;" horiz-adv-x="910" 
 />
    <glyph glyph-name="quotedblright" unicode="&#x201d;" horiz-adv-x="910" 
 />
    <glyph glyph-name="quotedblbase" unicode="&#x201e;" horiz-adv-x="910" 
 />
    <glyph glyph-name="dagger" unicode="&#x2020;" 
 />
    <glyph glyph-name="daggerdbl" unicode="&#x2021;" 
 />
    <glyph glyph-name="bullet" unicode="&#x2022;" horiz-adv-x="1024" 
 />
    <glyph glyph-name="ellipsis" unicode="&#x2026;" horiz-adv-x="2048" 
 />
    <glyph glyph-name="guilsinglleft" unicode="&#x2039;" horiz-adv-x="631" 
 />
    <glyph glyph-name="guilsinglright" unicode="&#x203a;" horiz-adv-x="631" 
 />
    <glyph glyph-name="fraction" unicode="&#x2044;" horiz-adv-x="342" 
 />
    <glyph glyph-name="fraction" unicode="&#x2215;" horiz-adv-x="342" 
 />
    <glyph glyph-name="franc" unicode="&#x20a3;" 
 />
    <glyph glyph-name="lira" unicode="&#x20a4;" 
 />
    <glyph glyph-name="peseta" unicode="&#x20a7;" horiz-adv-x="2028" 
 />
    <glyph glyph-name="Euro" unicode="&#x20ac;" 
 />
    <glyph glyph-name="afii61352" unicode="&#x2116;" horiz-adv-x="2271" 
 />
    <glyph glyph-name="trademark" unicode="&#x2122;" horiz-adv-x="1497" 
 />
    <glyph glyph-name="partialdiff" unicode="&#x2202;" 
 />
    <glyph glyph-name="Delta" unicode="&#x2206;" horiz-adv-x="1081" 
 />
    <glyph glyph-name="product" unicode="&#x220f;" horiz-adv-x="1515" 
 />
    <glyph glyph-name="summation" unicode="&#x2211;" horiz-adv-x="1206" 
 />
    <glyph glyph-name="minus" unicode="&#x2212;" 
 />
    <glyph glyph-name="radical" unicode="&#x221a;" 
 />
    <glyph glyph-name="infinity" unicode="&#x221e;" 
 />
    <glyph glyph-name="integral" unicode="&#x222b;" horiz-adv-x="665" 
 />
    <glyph glyph-name="approxequal" unicode="&#x2248;" 
 />
    <glyph glyph-name="lessequal" unicode="&#x2264;" 
 />
    <glyph glyph-name="greaterequal" unicode="&#x2265;" 
 />
    <glyph glyph-name="uniF001" unicode="&#xf001;" horiz-adv-x="1073" 
 />
    <glyph glyph-name="uniF001" unicode="&#xfb01;" horiz-adv-x="1073" 
 />
    <glyph glyph-name="uniF002" unicode="&#xf002;" horiz-adv-x="1081" 
 />
    <glyph glyph-name="uniF002" unicode="&#xfb02;" horiz-adv-x="1081" 
 />
    </font>
</defs>
</svg>
